<?xml version="1.0" encoding="utf-8"?><svg viewBox="0 0 41 42" xmlns="http://www.w3.org/2000/svg" xmlns:xlink="http://www.w3.org/1999/xlink"><style>:root>svg{display:none}:root>svg:target{display:block}</style><svg fill="none" viewBox="0 0 16 16" id="sprite--Pinterest" xmlns="http://www.w3.org/2000/svg"><path d="M15.5 8a7.749 7.749 0 0 1-7.75 7.75c-.813 0-1.594-.094-2.313-.344.313-.5.782-1.344.97-2.031.093-.344.468-1.844.468-1.844.25.5 1 .906 1.781.906 2.344 0 4.031-2.156 4.031-4.812 0-2.563-2.093-4.5-4.78-4.5-3.345 0-5.126 2.25-5.126 4.688 0 1.156.594 2.562 1.563 3.03.156.063.25.032.281-.124 0-.094.156-.625.219-.875 0-.063 0-.156-.063-.219-.312-.375-.562-1.094-.562-1.781 0-1.688 1.281-3.344 3.5-3.344 1.875 0 3.218 1.281 3.218 3.156 0 2.094-1.062 3.532-2.437 3.532-.75 0-1.313-.626-1.156-1.376C7.562 8.876 8 7.875 8 7.22c0-.594-.313-1.094-.969-1.094-.781 0-1.406.813-1.406 1.875 0 .688.219 1.156.219 1.156s-.75 3.25-.907 3.844c-.156.688-.093 1.625-.03 2.219A7.714 7.714 0 0 1 0 8 7.749 7.749 0 0 1 7.75.25 7.749 7.749 0 0 1 15.5 8Z" fill="#707070"/></svg><svg fill="none" viewBox="0 0 41 42" id="sprite--consultation" xmlns="http://www.w3.org/2000/svg"><path fill-rule="evenodd" clip-rule="evenodd" d="m38.543 35.013-31.185-.012c-.614-.008-.945.038-1.762.404l-5.048 2.26a.908.908 0 0 0-.548.84.92.92 0 0 0 .546.84c1.655.743 5.05 2.263 5.05 2.263.764.342 1.096.38 1.639.38l12.22.012a.602.602 0 0 0 0-1.205H7.978V39.11h26.538v1.686H22.438a.602.602 0 0 0 0 1.205h16.105A2.462 2.462 0 0 0 41 39.54v-2.066a2.462 2.462 0 0 0-2.457-2.46ZM3.485 37.67v1.672l-.578-.259-1.289-.577 1.867-.836Zm1.201-.538v2.749c.439.196 1.91.843 2.09.885v-4.518c-.18.041-2.09.884-2.09.884Zm3.29.772v-1.686h26.539v1.686H7.977Zm30.567 2.89c.692 0 1.256-.562 1.256-1.255v-2.065c0-.692-.564-1.255-1.256-1.255h-2.827v4.576h2.827ZM1.063 32l18.878-.002a.615.615 0 0 0 .619-.611.615.615 0 0 0-.619-.611l-18.704.002V5.848h2.472V26.27c0 .554.457 1.005 1.018 1.005h25.64c.423 0 .791-.226.938-.576.146-.348.05-.738-.26-1.042L10.954 5.848h22.742v19.371c0 .571.47 1.035 1.048 1.035h2.726c1.265 0 2.294 1.015 2.294 2.261 0 1.247-1.029 2.26-2.294 2.26H22.78a.615.615 0 0 0-.618.612c0 .337.276.61.618.61h14.689c1.947 0 3.531-1.562 3.531-3.482V5.611c0-1.922-1.584-3.485-3.531-3.485h-2.726c-.578 0-1.048.463-1.048 1.033v1.467H9.714L5.347.32c-.31-.305-.705-.399-1.06-.252-.354.147-.581.511-.578.924v3.634H1.062C.478 4.626 0 5.097 0 5.676V30.95C0 31.529.477 32 1.063 32ZM34.93 3.348h2.538c1.265 0 2.294 1.015 2.294 2.263V25.87a3.545 3.545 0 0 0-2.294-.838H34.93V3.348Zm-5.234 22.707L4.945 1.65v24.405h2.653v-.858c0-.338.277-.611.618-.611.342 0 .618.273.618.61v.858h2.655V24.39c0-.337.277-.61.618-.61.342 0 .619.273.619.61v1.666h2.652v-.858c0-.338.277-.611.618-.611.342 0 .619.273.619.61v.858h2.655V24.39c0-.337.277-.61.618-.61.341 0 .618.273.618.61v1.666h2.653v-.858c0-.338.277-.611.618-.611.342 0 .618.273.618.61v.858h5.302Z" fill="#000"/><path fill-rule="evenodd" clip-rule="evenodd" d="M16.688 22h-6.2c-.44 0-.726-.293-.726-.746v-6.348c0-.24 0-.686.403-.856.396-.168.682.126.89.341l6.137 6.283c.209.214.494.507.33.913-.166.413-.6.413-.834.413Zm-.907-1.148-4.9-5.017v5.017h4.9Z" fill="#000"/></svg><svg fill="none" viewBox="0 0 16 12" id="sprite--envelope" xmlns="http://www.w3.org/2000/svg"><path d="M14.5 0h-13A1.5 1.5 0 0 0 0 1.5v9c0 .844.656 1.5 1.5 1.5h13a1.5 1.5 0 0 0 1.5-1.5v-9c0-.813-.688-1.5-1.5-1.5Zm0 1.5v1.281c-.719.594-1.844 1.469-4.219 3.344C9.75 6.531 8.72 7.531 8 7.5c-.75.031-1.781-.969-2.313-1.375-2.375-1.875-3.5-2.75-4.187-3.344V1.5h13Zm-13 9V4.719c.688.562 1.719 1.375 3.25 2.593C5.438 7.845 6.656 9.033 8 9c1.313.031 2.5-1.156 3.219-1.688A510.233 510.233 0 0 1 14.5 4.72v5.78h-13Z" fill="#363838"/></svg><svg fill="none" viewBox="0 0 16 16" id="sprite--facebook" xmlns="http://www.w3.org/2000/svg"><path d="M15.75 8a7.74 7.74 0 0 1-6.563 7.656V10.25H11L11.344 8H9.188V6.562c0-.625.312-1.218 1.28-1.218h.97V3.437s-.876-.156-1.75-.156c-1.75 0-2.907 1.094-2.907 3.031V8H4.813v2.25H6.78v5.406C3.063 15.094.25 11.875.25 8A7.749 7.749 0 0 1 8 .25 7.749 7.749 0 0 1 15.75 8Z" fill="#707070"/></svg><svg fill="none" viewBox="0 0 14 15" id="sprite--instagram" xmlns="http://www.w3.org/2000/svg"><path d="M7 3.406c1.969 0 3.594 1.625 3.594 3.594 0 2-1.625 3.594-3.594 3.594C5 10.594 3.406 9 3.406 7A3.594 3.594 0 0 1 7 3.406Zm0 5.938c1.281 0 2.313-1.031 2.313-2.344A2.307 2.307 0 0 0 7 4.687C5.687 4.688 4.656 5.72 4.656 7A2.34 2.34 0 0 0 7 9.344Zm4.563-6.063a.84.84 0 0 1-.844.844.84.84 0 0 1-.844-.844.84.84 0 0 1 .844-.844.84.84 0 0 1 .844.844Zm2.374.844c.063 1.156.063 4.625 0 5.781-.062 1.125-.312 2.094-1.124 2.938-.813.812-1.813 1.062-2.938 1.125-1.156.062-4.625.062-5.781 0-1.125-.063-2.094-.313-2.938-1.125C.344 12 .094 11.03.031 9.906-.03 8.75-.03 5.281.031 4.125.094 3 .344 2 1.156 1.187 2 .375 2.97.125 4.094.063 5.25 0 8.719 0 9.875.063 11 .126 12 .376 12.813 1.188 13.624 2 13.874 3 13.937 4.126Zm-1.5 7c.376-.906.282-3.094.282-4.125 0-1 .094-3.188-.281-4.125-.25-.594-.72-1.094-1.313-1.313C10.187 1.188 8 1.282 7 1.282c-1.031 0-3.219-.095-4.125.28a2.41 2.41 0 0 0-1.344 1.313C1.156 3.813 1.25 6 1.25 7c0 1.031-.094 3.219.281 4.125a2.37 2.37 0 0 0 1.344 1.344c.906.375 3.094.281 4.125.281 1 0 3.188.094 4.125-.281.594-.25 1.094-.719 1.313-1.344Z" fill="#707070"/></svg><svg fill="none" viewBox="0 0 38 26" id="sprite--measurements" xmlns="http://www.w3.org/2000/svg"><path fill-rule="evenodd" clip-rule="evenodd" d="M23.67 19.13h13.514c.45 0 .816.397.816.886v5.38c0 .334-.25.604-.557.604-.307 0-.556-.27-.556-.604v-1.963H30.91c-.307 0-.556-.27-.556-.604 0-.334.249-.605.556-.605h5.977v-1.886H23.67v1.886h4.974c.308 0 .557.271.557.605 0 .334-.25.604-.557.604H23.67v1.107c0 .609-.458 1.104-1.02 1.104H11.835C5.309 25.644 0 19.892 0 12.822 0 5.752 5.31 0 11.835 0c5.213 0 9.649 3.67 11.223 8.751h2.012c.485 0 .879.385.98.957l.762 4.297c.065.362-.001.697-.187.942a.936.936 0 0 1-.767.365H23.67v3.818Zm2.026-5.027-.735-4.143h-1.589c.195.92.298 1.879.298 2.862v1.281h2.026Zm-24.568-.676h2.144c.15 0 .355-.015.526-.202.184-.204.179-.446.176-.575a2.32 2.32 0 0 1 0-.143 8.957 8.957 0 0 1 1.374-4.506.638.638 0 0 0-.142-.84.53.53 0 0 0-.774.154 10.216 10.216 0 0 0-1.56 4.903H1.128c.281-5.924 4.68-10.69 10.15-10.994v1.89c-1.753.115-3.417.777-4.826 1.921a.64.64 0 0 0-.113.846.526.526 0 0 0 .78.122c1.286-1.044 2.815-1.63 4.423-1.693.053-.002.095-.001.128 0h.005c.122.002.344.006.53-.193.19-.204.188-.446.187-.622v-2.27c5.654.314 10.165 5.396 10.165 11.597v8.514H12.261c-.543 0-.984.479-.984 1.067v2.017c-5.47-.305-9.869-5.07-10.15-10.994Zm11.264 11.009h10.165v-1.891H12.392v1.89Z" fill="#000"/><path fill-rule="evenodd" clip-rule="evenodd" d="M17.198 19.933h-5.322c-3.493 0-6.334-2.916-6.334-6.5s2.841-6.5 6.334-6.5c3.492 0 6.332 2.916 6.332 6.5v5.46c0 .574-.453 1.04-1.01 1.04Zm-.115-6.5c0-2.946-2.336-5.342-5.207-5.342-2.872 0-5.209 2.396-5.209 5.341 0 2.947 2.337 5.344 5.209 5.344h5.207v-5.344Z" fill="#000"/><path fill-rule="evenodd" clip-rule="evenodd" d="M13.899 15.6H9.852c-.63 0-1.143-.489-1.143-1.09v-2.156c0-.6.512-1.087 1.143-1.087h4.047c.63 0 1.143.487 1.143 1.087v2.156c0 .601-.513 1.09-1.143 1.09Zm-.129-3.123H9.98v1.912h3.79v-1.912Z" fill="#000"/></svg><svg fill="none" viewBox="0 0 38 34" id="sprite--production" xmlns="http://www.w3.org/2000/svg"><path fill-rule="evenodd" clip-rule="evenodd" d="M35.742 9.63h.588c.92 0 1.67.838 1.67 1.867V23.04c0 1.715-1.248 3.11-2.783 3.11h-1.734v6.102c0 .964-.701 1.748-1.564 1.748-.816 0-1.502-.713-1.56-1.624l-.395-6.225H13.805c-.307 0-.556-.28-.556-.623 0-.343.249-.622.556-.622h21.412c.92 0 1.67-.837 1.67-1.867V11.497c0-.343-.25-.622-.557-.622h-2.29c-.269 0-.493.213-.545.497a.686.686 0 0 0-.012.125v2.98h.897c.748 0 1.356.68 1.356 1.516v3.592c0 .837-.608 1.517-1.356 1.517H3.62c-.748 0-1.356-.68-1.356-1.517v-3.592c0-.836.608-1.517 1.356-1.517h.897v-2.98a.694.694 0 0 0-.012-.124c-.052-.284-.276-.497-.545-.497H1.67c-.307 0-.557.279-.557.622v11.542c0 1.03.75 1.867 1.67 1.867h8.425c.307 0 .556.279.556.622 0 .344-.249.623-.556.623H8.036l-.396 6.225C7.582 33.286 6.897 34 6.08 34c-.862 0-1.563-.784-1.563-1.748v-6.101H2.783C1.25 26.15 0 24.755 0 23.04V11.497c0-1.03.75-1.867 1.67-1.867h.588V2.862C2.258 1.284 3.408 0 4.82 0h12.177c.811 0 1.535.424 2.004 1.084C19.47.424 20.193 0 21.004 0H33.18c1.25 0 2.311.998 2.523 2.373.053.339-.15.66-.454.72-.303.057-.59-.17-.643-.508-.12-.777-.72-1.34-1.426-1.34H21.004c-.798 0-1.447.725-1.447 1.617v11.639l.01-.002.015-.004c.095-.022.195-.022 5.143-.02h.004l7.64.001v-2.98c0-1.028.75-1.866 1.67-1.866h.59V5.38c0-.343.248-.622.556-.622.307 0 .557.279.557.623v4.25ZM6.675 32.286l.335-6.164H5.903v6.128c0 .28.173.506.386.506.202 0 .372-.206.386-.47ZM34.68 19.63c0 .15-.11.272-.245.272H19.553V16.03c0-.15.11-.273.245-.273h14.637c.135 0 .245.122.245.273v3.6ZM3.32 9.637h.591c.924 0 1.676.838 1.676 1.869v2.982l7.69-.002h.004c4.975-.001 5.06-.001 5.139.02l.027.006V2.863c0-.893-.652-1.62-1.453-1.62H4.773c-.801 0-1.453.727-1.453 1.62v6.774Zm0 9.993v-3.601c0-.15.11-.273.245-.273h14.637c.135 0 .245.122.245.273v3.873H3.565c-.135 0-.245-.122-.245-.272Zm28.39 13.126c.214 0 .387-.227.387-.506v-6.128H30.99l.335 6.164c.015.264.184.47.386.47Z" fill="#000"/></svg><svg fill="none" viewBox="0 0 26 26" id="sprite--sidebar_close" xmlns="http://www.w3.org/2000/svg"><path fill-rule="evenodd" clip-rule="evenodd" d="M14.436 13 25.703 1.734A1.016 1.016 0 1 0 24.265.297L13 11.564 1.734.297A1.016 1.016 0 1 0 .297 1.734L11.564 13 .297 24.266a1.016 1.016 0 0 0 1.437 1.437L13 14.436l11.266 11.267a1.013 1.013 0 0 0 1.437 0 1.016 1.016 0 0 0 0-1.437L14.436 13Z" fill="#363838"/></svg><svg fill="none" viewBox="0 0 14 14" id="sprite--whatsapp" xmlns="http://www.w3.org/2000/svg"><path d="M11.875 2.063C13.188 3.375 14 5.092 14 6.968c0 3.812-3.188 6.937-7.031 6.937-1.157 0-2.282-.312-3.313-.844L0 14l.969-3.594A6.945 6.945 0 0 1 .03 6.937C.031 3.126 3.156 0 6.97 0c1.875 0 3.625.75 4.906 2.063ZM6.969 12.719c3.187 0 5.843-2.594 5.843-5.75 0-1.563-.656-3-1.75-4.094A5.697 5.697 0 0 0 7 1.187c-3.188 0-5.781 2.594-5.781 5.75 0 1.094.312 2.157.875 3.094l.156.219-.594 2.125 2.188-.594.187.125a5.78 5.78 0 0 0 2.938.813Zm3.187-4.313c.156.094.281.125.313.219.062.063.062.406-.094.813-.156.406-.844.78-1.156.812-.563.094-1 .063-2.094-.438-1.75-.75-2.875-2.5-2.969-2.593-.093-.125-.687-.938-.687-1.813 0-.843.437-1.25.594-1.437a.586.586 0 0 1 .468-.219h.313c.125 0 .25-.031.406.313.125.343.5 1.187.531 1.28.032.095.063.188 0 .313-.312.657-.687.625-.5.938.688 1.156 1.344 1.562 2.375 2.062.157.094.25.063.375-.031.094-.125.438-.531.531-.688.126-.187.25-.156.407-.093.156.062 1 .468 1.187.562Z" fill="#707070"/></svg><svg fill="none" viewBox="0 0 18 12" id="sprite--youtube" xmlns="http://www.w3.org/2000/svg"><path d="M17.156 1.906c.375 1.313.375 4.125.375 4.125s0 2.782-.375 4.125a2.084 2.084 0 0 1-1.5 1.5C14.312 12 9 12 9 12s-5.344 0-6.688-.344a2.084 2.084 0 0 1-1.5-1.5C.438 8.812.438 6.031.438 6.031s0-2.812.376-4.125a2.126 2.126 0 0 1 1.5-1.531C3.655 0 9 0 9 0s5.313 0 6.656.375a2.126 2.126 0 0 1 1.5 1.531ZM7.25 8.563l4.438-2.532L7.25 3.5v5.063Z" fill="#707070"/></svg></svg>