<svg viewBox="0 0 18 16" xmlns="http://www.w3.org/2000/svg" xmlns:xlink="http://www.w3.org/1999/xlink"><style>:root&gt;svg{display:none}:root&gt;svg:target{display:block}</style><svg fill="none" viewBox="0 0 16 16" id="sprite--Pinterest" xmlns="http://www.w3.org/2000/svg"><path d="M15.5 8a7.749 7.749 0 01-7.75 7.75c-.813 0-1.594-.094-2.313-.344.313-.5.782-1.344.97-2.031.093-.344.468-1.844.468-1.844.25.5 1 .906 1.781.906 2.344 0 4.031-2.156 4.031-4.812 0-2.563-2.093-4.5-4.78-4.5-3.345 0-5.126 2.25-5.126 4.688 0 1.156.594 2.562 1.563 3.03.156.063.25.032.281-.124 0-.094.156-.625.219-.875 0-.063 0-.156-.063-.219-.312-.375-.562-1.094-.562-1.781 0-1.688 1.281-3.344 3.5-3.344 1.875 0 3.218 1.281 3.218 3.156 0 2.094-1.062 3.532-2.437 3.532-.75 0-1.313-.626-1.156-1.376C7.562 8.876 8 7.875 8 7.22c0-.594-.313-1.094-.969-1.094-.781 0-1.406.813-1.406 1.875 0 .688.219 1.156.219 1.156s-.75 3.25-.907 3.844c-.156.688-.093 1.625-.03 2.219A7.714 7.714 0 010 8 7.749 7.749 0 017.75.25 7.749 7.749 0 0115.5 8z" fill="#707070"/></svg><svg fill="none" viewBox="0 0 16 12" id="sprite--envelope" xmlns="http://www.w3.org/2000/svg"><path d="M14.5 0h-13A1.5 1.5 0 000 1.5v9c0 .844.656 1.5 1.5 1.5h13a1.5 1.5 0 001.5-1.5v-9c0-.813-.688-1.5-1.5-1.5zm0 1.5v1.281c-.719.594-1.844 1.469-4.219 3.344C9.75 6.531 8.72 7.531 8 7.5c-.75.031-1.781-.969-2.313-1.375-2.375-1.875-3.5-2.75-4.187-3.344V1.5h13zm-13 9V4.719c.688.562 1.719 1.375 3.25 2.593C5.438 7.845 6.656 9.033 8 9c1.313.031 2.5-1.156 3.219-1.688A510.233 510.233 0 0114.5 4.72v5.78h-13z" fill="#363838"/></svg><svg fill="none" viewBox="0 0 16 16" id="sprite--facebook" xmlns="http://www.w3.org/2000/svg"><path d="M15.75 8a7.74 7.74 0 01-6.563 7.656V10.25H11L11.344 8H9.188V6.562c0-.625.312-1.218 1.28-1.218h.97V3.437s-.876-.156-1.75-.156c-1.75 0-2.907 1.094-2.907 3.031V8H4.813v2.25H6.78v5.406C3.063 15.094.25 11.875.25 8A7.749 7.749 0 018 .25 7.749 7.749 0 0115.75 8z" fill="#707070"/></svg><svg fill="none" viewBox="0 0 14 15" id="sprite--instagram" xmlns="http://www.w3.org/2000/svg"><path d="M7 3.406c1.969 0 3.594 1.625 3.594 3.594 0 2-1.625 3.594-3.594 3.594C5 10.594 3.406 9 3.406 7A3.594 3.594 0 017 3.406zm0 5.938c1.281 0 2.313-1.031 2.313-2.344A2.307 2.307 0 007 4.687C5.687 4.688 4.656 5.72 4.656 7A2.34 2.34 0 007 9.344zm4.563-6.063a.84.84 0 01-.844.844.84.84 0 01-.844-.844.84.84 0 01.844-.844.84.84 0 01.844.844zm2.374.844c.063 1.156.063 4.625 0 5.781-.062 1.125-.312 2.094-1.124 2.938-.813.812-1.813 1.062-2.938 1.125-1.156.062-4.625.062-5.781 0-1.125-.063-2.094-.313-2.938-1.125C.344 12 .094 11.03.031 9.906-.03 8.75-.03 5.281.031 4.125.094 3 .344 2 1.156 1.187 2 .375 2.97.125 4.094.063 5.25 0 8.719 0 9.875.063 11 .126 12 .376 12.813 1.188 13.624 2 13.874 3 13.937 4.126zm-1.5 7c.376-.906.282-3.094.282-4.125 0-1 .094-3.188-.281-4.125-.25-.594-.72-1.094-1.313-1.313C10.187 1.188 8 1.282 7 1.282c-1.031 0-3.219-.095-4.125.28a2.41 2.41 0 00-1.344 1.313C1.156 3.813 1.25 6 1.25 7c0 1.031-.094 3.219.281 4.125a2.37 2.37 0 001.344 1.344c.906.375 3.094.281 4.125.281 1 0 3.188.094 4.125-.281.594-.25 1.094-.719 1.313-1.344z" fill="#707070"/></svg><svg fill="none" viewBox="0 0 14 14" id="sprite--whatsapp" xmlns="http://www.w3.org/2000/svg"><path d="M11.875 2.063C13.188 3.375 14 5.092 14 6.968c0 3.812-3.188 6.937-7.031 6.937-1.157 0-2.282-.312-3.313-.844L0 14l.969-3.594A6.945 6.945 0 01.03 6.937C.031 3.126 3.156 0 6.97 0c1.875 0 3.625.75 4.906 2.063zM6.969 12.719c3.187 0 5.843-2.594 5.843-5.75 0-1.563-.656-3-1.75-4.094A5.697 5.697 0 007 1.187c-3.188 0-5.781 2.594-5.781 5.75 0 1.094.312 2.157.875 3.094l.156.219-.594 2.125 2.188-.594.187.125a5.78 5.78 0 002.938.813zm3.187-4.313c.156.094.281.125.313.219.062.063.062.406-.094.813-.156.406-.844.78-1.156.812-.563.094-1 .063-2.094-.438-1.75-.75-2.875-2.5-2.969-2.593-.093-.125-.687-.938-.687-1.813 0-.843.437-1.25.594-1.437a.586.586 0 01.468-.219h.313c.125 0 .25-.031.406.313.125.343.5 1.187.531 1.28.032.095.063.188 0 .313-.312.657-.687.625-.5.938.688 1.156 1.344 1.562 2.375 2.062.157.094.25.063.375-.031.094-.125.438-.531.531-.688.126-.187.25-.156.407-.093.156.062 1 .468 1.187.562z" fill="#707070"/></svg><svg fill="none" viewBox="0 0 18 12" id="sprite--youtube" xmlns="http://www.w3.org/2000/svg"><path d="M17.156 1.906c.375 1.313.375 4.125.375 4.125s0 2.782-.375 4.125a2.084 2.084 0 01-1.5 1.5C14.312 12 9 12 9 12s-5.344 0-6.688-.344a2.084 2.084 0 01-1.5-1.5C.438 8.812.438 6.031.438 6.031s0-2.812.376-4.125a2.126 2.126 0 011.5-1.531C3.655 0 9 0 9 0s5.313 0 6.656.375a2.126 2.126 0 011.5 1.531zM7.25 8.563l4.438-2.532L7.25 3.5v5.063z" fill="#707070"/></svg></svg>